<svg width="223" height="82" viewBox="0 0 223 82" fill="none" xmlns="http://www.w3.org/2000/svg">
<path d="M3.46335e-06 9.72657C3.34902e-06 8.40839 -0.00172605 7.29895 0.0722691 6.39356C0.148179 5.46488 0.313397 4.57586 0.744144 3.73047C1.39925 2.44487 2.44487 1.39925 3.73047 0.744144C4.57586 0.313397 5.46488 0.148179 6.39356 0.0722691C7.29895 -0.00172602 8.40839 3.34786e-06 9.72657 3.46332e-06H31C48.1208 3.46332e-06 62 13.8792 62 31C62 39.4129 58.6445 47.0436 53.2061 52.627L58.5049 68.5225C59.0656 70.2047 59.5299 71.5934 59.7988 72.7314C60.0701 73.8794 60.2087 75.0215 59.9219 76.1641C59.4969 77.8566 58.44 79.3223 56.9688 80.2607C55.9756 80.8942 54.8487 81.1248 53.6738 81.2305C52.509 81.3352 51.0441 81.333 49.2705 81.333H9.72657C8.40839 81.333 7.29895 81.3347 6.39356 81.2607C5.46488 81.1848 4.57586 81.0196 3.73047 80.5889C2.44499 79.9338 1.39927 78.8883 0.744144 77.6025C0.313386 76.757 0.148165 75.8673 0.0722691 74.9385C-0.0016878 74.033 3.26573e-06 72.9237 3.46335e-06 71.6055V9.72657ZM49.9561 55.5273C45.209 59.201 39.3653 61.528 33 61.9336V77.333H49.2705C51.1194 77.333 52.3718 77.3309 53.3154 77.2461C54.2486 77.1622 54.6217 77.0134 54.8174 76.8887C55.4274 76.4996 55.8657 75.8921 56.042 75.1904C56.0985 74.9653 56.1218 74.5636 55.9063 73.6514C55.6883 72.7294 55.2945 71.5408 54.71 69.7871L49.9561 55.5273ZM4 71.6055C4 72.9898 4.00198 73.9084 4.05957 74.6133C4.11525 75.2945 4.21303 75.5985 4.3086 75.7861C4.58016 76.3191 5.01372 76.7527 5.54688 77.0244C5.73449 77.12 6.03844 77.2178 6.71973 77.2734C7.4244 77.331 8.3425 77.333 9.72657 77.333H29V31C29 29.8954 29.8954 29 31 29C32.1046 29 33 29.8954 33 31V57.9268C39.3882 57.4593 45.1569 54.7712 49.542 50.627C54.7528 45.7023 58 38.7318 58 31C58 16.0883 45.9117 4 31 4H9.72657C8.3425 4 7.4244 4.00199 6.71973 4.05957C6.03844 4.11525 5.7345 4.21302 5.54688 4.3086C5.01381 4.58023 4.58023 5.01381 4.3086 5.54688C4.21302 5.7345 4.11525 6.03844 4.05957 6.71973C4.00199 7.4244 4 8.3425 4 9.72657V71.6055Z" fill="white"/>
<path d="M222.777 58.904H219.673V71H215.769V58.904H213.401V55H215.769V49.976H219.673V55H222.777V58.904Z" fill="white"/>
<path d="M205.015 71.288C204.183 71.2347 203.378 71.0693 202.599 70.792C201.831 70.504 201.148 70.1147 200.551 69.624C199.954 69.1333 199.495 68.5467 199.175 67.864L202.471 66.456C202.599 66.6693 202.807 66.8987 203.095 67.144C203.383 67.3787 203.724 67.576 204.119 67.736C204.524 67.896 204.967 67.976 205.447 67.976C205.852 67.976 206.236 67.9227 206.599 67.816C206.972 67.6987 207.271 67.5227 207.495 67.288C207.73 67.0533 207.847 66.7493 207.847 66.376C207.847 65.9813 207.708 65.6773 207.431 65.464C207.164 65.24 206.823 65.0747 206.407 64.968C206.002 64.8507 205.607 64.744 205.223 64.648C204.21 64.4453 203.266 64.1307 202.391 63.704C201.527 63.2773 200.828 62.728 200.295 62.056C199.772 61.3733 199.511 60.552 199.511 59.592C199.511 58.536 199.788 57.624 200.343 56.856C200.908 56.088 201.639 55.496 202.535 55.08C203.442 54.664 204.418 54.456 205.463 54.456C206.732 54.456 207.895 54.7227 208.951 55.256C210.018 55.7787 210.86 56.52 211.479 57.48L208.391 59.304C208.242 59.048 208.034 58.8133 207.767 58.6C207.5 58.376 207.196 58.1947 206.855 58.056C206.514 57.9067 206.156 57.8213 205.783 57.8C205.303 57.7787 204.866 57.8213 204.471 57.928C204.076 58.0347 203.756 58.216 203.511 58.472C203.276 58.728 203.159 59.0693 203.159 59.496C203.159 59.9013 203.319 60.2053 203.639 60.408C203.959 60.6 204.343 60.7493 204.791 60.856C205.25 60.9627 205.687 61.08 206.103 61.208C207.042 61.5173 207.922 61.896 208.743 62.344C209.575 62.792 210.242 63.3413 210.743 63.992C211.244 64.6427 211.484 65.4213 211.463 66.328C211.463 67.3627 211.154 68.2693 210.535 69.048C209.916 69.816 209.116 70.4027 208.135 70.808C207.164 71.2133 206.124 71.3733 205.015 71.288Z" fill="white"/>
<path d="M189.679 71.416C188.207 71.416 186.863 71.0373 185.647 70.28C184.441 69.5227 183.476 68.504 182.751 67.224C182.036 65.944 181.679 64.5307 181.679 62.984C181.679 61.8213 181.887 60.7333 182.303 59.72C182.719 58.696 183.289 57.8 184.015 57.032C184.751 56.2533 185.604 55.6453 186.575 55.208C187.545 54.7707 188.58 54.552 189.679 54.552C190.927 54.552 192.068 54.8187 193.103 55.352C194.148 55.8747 195.033 56.5947 195.759 57.512C196.484 58.4293 197.012 59.4747 197.343 60.648C197.673 61.8213 197.748 63.048 197.567 64.328H185.871C186.02 64.9253 186.265 65.464 186.607 65.944C186.948 66.4133 187.38 66.792 187.903 67.08C188.425 67.3573 189.017 67.5013 189.679 67.512C190.361 67.5227 190.98 67.3627 191.535 67.032C192.1 66.6907 192.569 66.232 192.943 65.656L196.927 66.584C196.276 68.0027 195.305 69.1653 194.015 70.072C192.724 70.968 191.279 71.416 189.679 71.416ZM185.743 61.4H193.615C193.497 60.76 193.247 60.184 192.863 59.672C192.489 59.1493 192.025 58.7333 191.471 58.424C190.916 58.1147 190.319 57.96 189.679 57.96C189.039 57.96 188.447 58.1147 187.903 58.424C187.359 58.7227 186.895 59.1333 186.511 59.656C186.137 60.168 185.881 60.7493 185.743 61.4Z" fill="white"/>
<path d="M171.53 71L171.514 55H175.418L175.434 56.424C175.978 55.848 176.628 55.3947 177.386 55.064C178.143 54.7227 178.959 54.552 179.834 54.552C180.42 54.552 181.007 54.6373 181.594 54.808L180.058 58.744C179.652 58.584 179.247 58.504 178.842 58.504C178.212 58.504 177.636 58.6587 177.114 58.968C176.602 59.2667 176.191 59.6773 175.882 60.2C175.583 60.712 175.434 61.2827 175.434 61.912V71H171.53Z" fill="white"/>
<path d="M161.022 71.416C159.55 71.416 158.206 71.0373 156.99 70.28C155.785 69.5227 154.82 68.5093 154.094 67.24C153.38 65.96 153.022 64.5467 153.022 63C153.022 61.8267 153.23 60.7333 153.646 59.72C154.062 58.696 154.633 57.8 155.358 57.032C156.094 56.2533 156.948 55.6453 157.918 55.208C158.889 54.7707 159.924 54.552 161.022 54.552C162.494 54.552 163.833 54.9307 165.038 55.688C166.254 56.4453 167.22 57.464 167.934 58.744C168.66 60.024 169.022 61.4427 169.022 63C169.022 64.1627 168.814 65.2507 168.398 66.264C167.982 67.2773 167.406 68.1733 166.67 68.952C165.945 69.72 165.097 70.3227 164.126 70.76C163.166 71.1973 162.132 71.416 161.022 71.416ZM161.022 67.512C161.801 67.512 162.5 67.304 163.118 66.888C163.737 66.472 164.222 65.9227 164.574 65.24C164.937 64.5573 165.118 63.8107 165.118 63C165.118 62.168 164.932 61.4107 164.558 60.728C164.196 60.0347 163.7 59.4853 163.07 59.08C162.452 58.664 161.769 58.456 161.022 58.456C160.254 58.456 159.561 58.664 158.942 59.08C158.324 59.496 157.833 60.0507 157.47 60.744C157.108 61.4373 156.926 62.1893 156.926 63C156.926 63.8427 157.113 64.6053 157.486 65.288C157.86 65.9707 158.356 66.5147 158.974 66.92C159.604 67.3147 160.286 67.512 161.022 67.512Z" fill="white"/>
<path d="M139.701 71V48.6H152.933V52.504H143.605V57.048H151.397V60.952H143.605V71H139.701Z" fill="white"/>
<path d="M136.42 60.888V71H132.516V61.912C132.516 61.2827 132.361 60.712 132.052 60.2C131.742 59.6773 131.326 59.2667 130.804 58.968C130.292 58.6587 129.721 58.504 129.092 58.504C128.462 58.504 127.886 58.6587 127.364 58.968C126.852 59.2667 126.441 59.6773 126.132 60.2C125.833 60.712 125.684 61.2827 125.684 61.912V71H121.78L121.764 55H125.668L125.684 56.424C126.228 55.848 126.878 55.3947 127.636 55.064C128.393 54.7227 129.209 54.552 130.084 54.552C131.246 54.552 132.308 54.84 133.268 55.416C134.228 55.9813 134.99 56.744 135.556 57.704C136.132 58.6533 136.42 59.7147 136.42 60.888Z" fill="white"/>
<path d="M114.139 55H118.043V71H114.139V55ZM116.123 52.936C115.547 52.936 115.061 52.7493 114.667 52.376C114.272 51.992 114.075 51.512 114.075 50.936C114.075 50.3707 114.272 49.896 114.667 49.512C115.061 49.128 115.541 48.936 116.107 48.936C116.672 48.936 117.147 49.128 117.531 49.512C117.925 49.896 118.123 50.3707 118.123 50.936C118.123 51.512 117.931 51.992 117.547 52.376C117.163 52.7493 116.688 52.936 116.123 52.936Z" fill="white"/>
<path d="M107.046 55H110.95V71H107.046L106.87 69.016C106.433 69.7307 105.852 70.312 105.126 70.76C104.412 71.1973 103.564 71.416 102.582 71.416C101.398 71.416 100.289 71.192 99.2545 70.744C98.2198 70.296 97.3078 69.6773 96.5185 68.888C95.7398 68.0987 95.1265 67.1867 94.6785 66.152C94.2412 65.1173 94.0225 64.008 94.0225 62.824C94.0225 61.6827 94.2305 60.6107 94.6465 59.608C95.0732 58.6053 95.6652 57.7253 96.4225 56.968C97.1798 56.2107 98.0545 55.6187 99.0465 55.192C100.038 54.7653 101.105 54.552 102.246 54.552C103.302 54.552 104.246 54.7867 105.078 55.256C105.921 55.7253 106.636 56.3227 107.222 57.048L107.046 55ZM102.486 67.656C103.318 67.656 104.054 67.448 104.694 67.032C105.334 66.616 105.836 66.056 106.198 65.352C106.561 64.6373 106.742 63.8533 106.742 63C106.742 62.136 106.561 61.352 106.198 60.648C105.836 59.9333 105.329 59.368 104.678 58.952C104.038 58.536 103.308 58.328 102.486 58.328C101.665 58.328 100.913 58.5413 100.23 58.968C99.5585 59.384 99.0198 59.944 98.6145 60.648C98.2198 61.352 98.0225 62.136 98.0225 63C98.0225 63.864 98.2252 64.648 98.6305 65.352C99.0358 66.056 99.5745 66.616 100.246 67.032C100.929 67.448 101.676 67.656 102.486 67.656Z" fill="white"/>
<path d="M76.92 71V48.6H85.512C86.728 48.6 87.8267 48.904 88.808 49.512C89.7893 50.12 90.568 50.936 91.144 51.96C91.72 52.9733 92.008 54.0987 92.008 55.336C92.008 56.3493 91.8213 57.2827 91.448 58.136C91.0853 58.9787 90.5733 59.7093 89.912 60.328C89.2613 60.9467 88.5093 61.416 87.656 61.736L93.016 71H88.52L83.336 62.088H80.824V71H76.92ZM80.824 58.184H85.064C85.6187 58.184 86.1253 58.0453 86.584 57.768C87.0427 57.4907 87.4107 57.1173 87.688 56.648C87.9653 56.1787 88.104 55.656 88.104 55.08C88.104 54.4933 87.9653 53.9653 87.688 53.496C87.4107 53.0267 87.0427 52.6533 86.584 52.376C86.1253 52.0987 85.6187 51.96 85.064 51.96H80.824V58.184Z" fill="white"/>
<path d="M105.677 17H109.821L101.069 41H96.9252L99.8213 33L94.0612 17H98.3332L101.773 27.656L105.677 17Z" fill="white"/>
<path d="M76.92 33V10.6H85.08C86.264 10.6 87.3307 10.8453 88.28 11.336C89.24 11.816 89.9973 12.5093 90.552 13.416C91.1173 14.312 91.4 15.3733 91.4 16.6C91.4 17.144 91.32 17.6933 91.16 18.248C91 18.8027 90.7547 19.304 90.424 19.752C90.0933 20.1893 89.6667 20.5147 89.144 20.728C89.8373 20.8987 90.4027 21.208 90.84 21.656C91.2773 22.104 91.6187 22.632 91.864 23.24C92.1093 23.8373 92.2747 24.4507 92.36 25.08C92.456 25.6987 92.504 26.2747 92.504 26.808C92.504 27.992 92.2107 29.048 91.624 29.976C91.0373 30.904 90.248 31.64 89.256 32.184C88.2747 32.728 87.1867 33 85.992 33H76.92ZM80.824 29.656H85.592C86.232 29.656 86.808 29.5013 87.32 29.192C87.832 28.8827 88.2427 28.456 88.552 27.912C88.8613 27.368 89.016 26.7493 89.016 26.056C89.016 25.4587 88.8613 24.8933 88.552 24.36C88.2427 23.8267 87.832 23.3947 87.32 23.064C86.808 22.7333 86.232 22.568 85.592 22.568H80.824V29.656ZM80.824 19.272H84.632C85.4213 19.272 86.0933 19.0267 86.648 18.536C87.2133 18.0453 87.496 17.3947 87.496 16.584C87.496 15.72 87.2133 15.0693 86.648 14.632C86.0933 14.184 85.4213 13.96 84.632 13.96H80.824V19.272Z" fill="white"/>
</svg>
